<?xml version="1.0" encoding="UTF-8"?>
<svg xmlns="http://www.w3.org/2000/svg" width="422" height="106" viewBox="0 0 422 106" fill="none">
  <path d="M387.362 68.9605C383.367 67.5413 380.519 65.9427 378.825 64.1804C377.132 62.4181 376.289 60.2347 376.289 57.599C376.289 53.0217 378.724 49.2553 383.593 46.3077C388.462 43.3601 394.845 41.8863 402.765 41.8863C408.821 41.8863 413.487 42.5413 416.756 43.8592C420.002 45.177 421.641 47.0329 421.641 49.4658C421.641 50.7837 421.11 51.8676 420.065 52.7253C419.019 53.5675 417.661 53.9964 415.968 53.9964C413.877 53.9964 412.074 53.4817 410.584 52.468C409.078 51.4543 408.337 50.2612 408.337 48.92C408.337 48.7328 408.407 48.265 408.555 47.5476C408.696 46.8146 408.758 46.2297 408.758 45.7774C408.758 45.1302 408.415 44.6156 407.697 44.2179C406.979 43.8046 406.05 43.6018 404.903 43.6018C403.312 43.6018 401.993 44.0463 400.947 44.9509C399.917 45.8398 399.402 46.9549 399.402 48.2572C399.402 49.5594 399.902 50.7057 400.893 51.5791C401.884 52.4524 404.045 53.4271 407.377 54.511L409.968 55.4C414.564 56.9284 417.685 58.5191 419.331 60.1801C420.978 61.8254 421.805 64.001 421.805 66.7225C421.805 71.6273 419.058 75.6822 413.557 78.8715C408.071 82.0608 400.939 83.6516 392.192 83.6516C385.591 83.6516 380.409 82.8952 376.672 81.3668C372.918 79.8463 371.046 77.772 371.046 75.1442C371.046 73.5534 371.678 72.2434 372.95 71.1984C374.222 70.1691 375.884 69.6545 377.92 69.6545C380.324 69.6545 382.313 70.2003 383.874 71.2842C385.45 72.3837 386.223 73.7171 386.223 75.3157C386.223 75.8771 386.106 76.5634 385.848 77.3899C385.591 78.2009 385.474 78.7468 385.474 79.0041C385.474 79.8073 385.957 80.4779 386.933 80.9925C387.908 81.5072 389.196 81.7645 390.795 81.7645C393.027 81.7645 394.845 81.2499 396.25 80.2361C397.639 79.2224 398.341 77.9202 398.341 76.3606C398.341 74.9882 397.873 73.8809 396.936 73.0231C395.992 72.1654 393.846 71.1672 390.452 69.9742L387.346 68.9683L387.362 68.9605Z" fill="#72569C"></path>
  <path d="M340.294 61.3731C340.465 65.1239 341.737 68.1261 344.117 70.4031C346.497 72.68 349.501 73.8185 353.169 73.8185C355.455 73.8185 357.593 73.491 359.552 72.8204C361.503 72.1498 363.328 71.1049 365.037 69.7169C365.771 69.1008 366.598 68.2976 367.542 67.3307C368.471 66.3404 369.103 65.8569 369.407 65.8569C369.548 65.8569 369.68 65.9115 369.805 66.0285C369.93 66.1454 369.992 66.2468 369.992 66.356C369.992 66.8005 369.493 67.744 368.486 69.1788C367.472 70.598 366.239 72.0094 364.795 73.413C361.331 76.7583 357.578 79.2926 353.567 80.9925C349.556 82.6925 345.28 83.5502 340.707 83.5502C334.652 83.5502 329.713 81.8893 325.905 78.583C322.113 75.2611 320.209 71.0035 320.209 65.7789C320.209 58.7999 323.33 53.0606 329.557 48.5925C335.799 44.1165 343.86 41.8863 353.754 41.8863C359.349 41.8863 363.859 42.7753 367.285 44.5298C370.71 46.2921 372.427 48.5379 372.427 51.2671C372.427 54.6748 369.782 57.2169 364.483 58.8778C359.185 60.5388 351.124 61.3653 340.302 61.3653L340.294 61.3731ZM340.294 59.5718C345.522 59.4549 349.954 58.1994 353.606 55.7821C357.258 53.3648 359.076 50.6901 359.076 47.7581C359.076 46.4403 358.662 45.4421 357.812 44.7403C356.985 44.0385 355.783 43.6954 354.207 43.6954C350.883 43.6954 347.878 45.2004 345.171 48.2182C342.479 51.2359 340.848 55.0257 340.286 59.5796L340.294 59.5718Z" fill="#72569C"></path>
  <path d="M283.355 52.5304C286.562 48.8966 289.925 46.2063 293.436 44.444C296.948 42.6817 300.755 41.8005 304.836 41.8005C307.958 41.8005 310.392 42.4867 312.125 43.8748C313.857 45.2628 314.731 47.2044 314.731 49.7232C314.731 50.1676 314.676 50.7369 314.559 51.4387C314.442 52.1405 314.27 53.0138 314.013 54.0744L310.58 69.1242C310.439 69.7714 310.322 70.3251 310.221 70.8007C310.119 71.2764 310.08 71.6273 310.08 71.8457C310.08 72.836 310.306 73.5768 310.751 74.0914C311.196 74.6061 311.836 74.8634 312.686 74.8634C313.576 74.8634 314.45 74.5359 315.308 73.8575C316.151 73.1869 317.056 72.1108 318.016 70.6214C318.188 70.3797 318.39 70.0054 318.648 69.5297C319.296 68.4458 319.795 67.8999 320.154 67.8999C320.38 67.8999 320.568 67.9545 320.7 68.0715C320.841 68.1885 320.919 68.3132 320.919 68.4848C320.919 69.1554 320.575 70.1301 319.873 71.4168C319.171 72.7034 318.242 74.0524 317.056 75.4405C314.965 77.9904 312.53 79.932 309.737 81.2655C306.959 82.6067 303.978 83.2851 300.833 83.2851C297.166 83.2851 294.232 82.3806 292.016 80.5637C289.808 78.7467 288.707 76.3606 288.707 73.3974C288.707 72.4071 288.832 71.1516 289.105 69.6233C289.363 68.0949 289.776 66.1766 290.338 63.884L292.312 56.2889C292.5 55.5481 292.625 55.0023 292.671 54.6904C292.71 54.3629 292.726 54.1055 292.726 53.9184C292.726 52.8735 292.469 52.0703 291.954 51.5011C291.439 50.9318 290.697 50.6433 289.745 50.6433C287.568 50.6433 285.766 51.9299 284.33 54.5032C282.902 57.0687 281.568 61.6305 280.304 68.1651L277.783 80.6962C277.666 81.3668 277.471 81.8269 277.151 82.0998C276.847 82.3572 276.332 82.4975 275.645 82.4975H275.06L272.11 82.326H267.826C266.913 82.326 265.876 82.3416 264.736 82.365C263.589 82.3961 262.903 82.4117 262.676 82.4117L259.415 82.5677H258.915C258.127 82.5677 257.596 82.4975 257.308 82.326C257.035 82.1544 256.894 81.8425 256.894 81.3512C256.925 81.1953 256.964 80.9224 257.019 80.5637C257.05 80.3921 257.074 80.2595 257.105 80.1738L262.762 54.6904C262.934 53.8872 263.051 53.201 263.137 52.6473C263.223 52.0781 263.269 51.618 263.269 51.2593C263.269 50.1988 263.098 49.4112 262.77 48.9122C262.427 48.3975 261.67 47.9218 260.468 47.4774C260.054 47.3058 259.407 47.1889 258.564 47.1031C257.706 47.0173 257.277 46.7288 257.277 46.2609C257.277 45.9568 257.433 45.7151 257.721 45.5591C258.018 45.3875 258.439 45.3018 258.993 45.3018C259.196 45.3018 259.82 45.3174 260.882 45.3408C261.958 45.372 262.887 45.3875 263.699 45.3875C270.487 45.3875 277.026 44.4752 283.331 42.6583C284.33 42.3854 284.923 42.245 285.095 42.245C285.297 42.245 285.454 42.3308 285.594 42.4712C285.734 42.6271 285.812 42.8299 285.812 43.0872C285.812 43.2041 285.68 43.6174 285.422 44.3426C284.564 47.1031 283.877 49.8245 283.378 52.5148L283.355 52.5304Z" fill="#72569C"></path>
  <path d="M236.84 43.017L239.564 43.1885H243.676C244.55 43.1885 245.525 43.173 246.594 43.1418C247.671 43.1106 248.342 43.1028 248.584 43.1028L251.69 43.017H252.189C252.922 43.017 253.422 43.1184 253.679 43.2899C253.952 43.4771 254.077 43.789 254.077 44.2335C254.077 44.405 254.046 44.6623 253.991 45.021C253.96 45.1926 253.937 45.3252 253.906 45.4109L250.215 62.5116C249.77 64.617 249.185 67.549 248.451 71.3076C246.305 82.2402 244.284 88.9463 242.412 91.4416C239.79 94.9585 235.982 97.563 231.004 99.2707C226.017 100.971 219.72 101.836 212.089 101.836C205.402 101.836 200.259 100.963 196.67 99.2161C193.073 97.4694 191.27 94.9975 191.27 91.7769C191.27 89.3986 192.214 87.4569 194.103 85.9364C195.991 84.408 198.426 83.6438 201.422 83.6438C204.418 83.6438 206.673 84.291 208.453 85.5933C210.232 86.8955 211.113 88.611 211.113 90.771C211.113 91.66 210.942 92.4865 210.614 93.2351C210.271 93.9915 209.787 94.6232 209.139 95.1222C208.921 95.325 208.538 95.5667 208.008 95.8786C207.165 96.3543 206.751 96.8378 206.751 97.3368C206.751 98.0386 207.321 98.6391 208.468 99.1225C209.615 99.606 211.043 99.8555 212.752 99.8555C216.388 99.8555 219.182 98.6235 221.125 96.1671C223.076 93.7186 224.706 89.1725 226.025 82.5209L227.742 73.8341C226.486 76.6647 224.605 78.8247 222.116 80.3453C219.627 81.8503 216.677 82.6067 213.267 82.6067C208.07 82.6067 203.872 81.1485 200.712 78.2399C197.536 75.3391 195.944 71.5025 195.944 66.7225C195.944 63.5019 196.717 60.3828 198.246 57.365C199.791 54.3473 201.999 51.6258 204.879 49.1929C207.672 46.8457 210.731 45.0444 214.071 43.7812C217.395 42.5257 220.797 41.8941 224.308 41.8941C226.813 41.8941 228.834 42.362 230.364 43.3211C231.877 44.2647 232.954 45.7073 233.571 47.6723L234.156 44.8261C234.273 44.1555 234.468 43.6798 234.772 43.4225C235.061 43.1496 235.545 43.0248 236.216 43.0248H236.848L236.84 43.017ZM219.299 78.9027C220.657 78.9027 222.022 78.2477 223.349 76.9142C224.667 75.5808 225.783 73.7639 226.673 71.4324C228.304 67.2683 229.576 63.2056 230.528 59.2131C231.456 55.2362 231.932 52.1015 231.932 49.8011C231.932 48.2416 231.542 46.9939 230.769 46.0504C229.997 45.1224 228.99 44.6467 227.734 44.6467C226.329 44.6467 225.112 45.2316 224.082 46.3935C223.052 47.5553 221.991 49.5438 220.93 52.3588C219.252 56.8348 217.926 61.0846 216.966 65.1083C216.006 69.132 215.522 72.1186 215.522 74.0758C215.522 75.5964 215.85 76.7661 216.529 77.6239C217.2 78.466 218.128 78.8949 219.307 78.8949L219.299 78.9027Z" fill="#72569C"></path>
  <path d="M164.022 74.5437C162.789 77.4445 160.947 79.6669 158.482 81.1797C156.016 82.7081 153.058 83.4723 149.594 83.4723C144.366 83.4723 140.175 81.9829 137.007 79.0197C133.847 76.0565 132.271 72.1342 132.271 67.2449C132.271 64.1648 133.059 61.0768 134.651 57.9577C136.227 54.8541 138.443 52.0469 141.291 49.5594C144.085 47.0953 147.175 45.1926 150.554 43.8358C153.948 42.479 157.327 41.8005 160.705 41.8005C163.195 41.8005 165.169 42.284 166.62 43.2431C168.079 44.2023 169.172 45.7307 169.897 47.8361L170.483 44.8183C170.6 44.1477 170.795 43.672 171.084 43.4147C171.388 43.1418 171.856 43.017 172.527 43.017H173.159L175.968 43.1886H180.291C181.196 43.1886 182.211 43.173 183.358 43.1418C184.505 43.1106 185.192 43.1028 185.418 43.1028L188.594 43.017H189.093C189.881 43.017 190.412 43.1028 190.693 43.2743C190.966 43.4303 191.106 43.7578 191.106 44.2335C191.106 44.3738 191.059 44.6468 190.981 45.06C190.95 45.2004 190.927 45.3174 190.896 45.4031L185.527 69.171C185.394 69.7558 185.285 70.3173 185.199 70.8319C185.113 71.3466 185.074 71.7443 185.074 72.0172C185.074 73.0075 185.301 73.7483 185.746 74.263C186.19 74.7776 186.83 75.035 187.681 75.035C188.531 75.035 189.382 74.7075 190.201 74.0447C191.005 73.3896 191.918 72.3291 192.924 70.8397C193.096 70.5668 193.299 70.1847 193.556 69.709C194.204 68.6251 194.703 68.0793 195.062 68.0793C195.289 68.0793 195.476 68.1183 195.609 68.2197C195.749 68.321 195.827 68.438 195.827 68.5784C195.827 69.2802 195.484 70.2939 194.782 71.6273C194.079 72.9452 193.174 74.2864 192.05 75.6198C189.905 78.1931 187.439 80.1426 184.645 81.4682C181.867 82.8016 178.848 83.4567 175.57 83.4567C172.293 83.4567 169.671 82.6847 167.681 81.1251C165.707 79.5811 164.49 77.3743 164.045 74.5281L164.022 74.5437ZM155.548 79.5811C156.905 79.5811 158.279 78.9105 159.629 77.5615C160.986 76.2281 162.118 74.3878 163.007 72.0406C164.638 67.7908 165.91 63.6111 166.846 59.5328C167.791 55.4546 168.251 52.2341 168.251 49.8869C168.251 48.3273 167.869 47.0719 167.081 46.0972C166.308 45.138 165.278 44.6546 164.03 44.6546C162.625 44.6546 161.423 45.2238 160.424 46.3701C159.41 47.5164 158.364 49.575 157.272 52.5382C155.594 57.0609 154.268 61.3965 153.308 65.5294C152.348 69.6623 151.864 72.7268 151.864 74.7153C151.864 76.2047 152.192 77.3743 152.863 78.2633C153.534 79.1367 154.439 79.5811 155.555 79.5811H155.548Z" fill="#72569C"></path>
  <path fill-rule="evenodd" clip-rule="evenodd" d="M79.834 64.4533C73.6384 48.1168 55.0592 12.3013 34.5916 31.1721C14.1241 50.0429 31.6031 100.737 154.83 104.48C-50.8835 121.557 -10.7678 -11.1157 44.7747 0.752646C76.2524 7.48219 80.0213 48.5925 79.834 64.4533Z" fill="#E2007A"></path>
  <path fill-rule="evenodd" clip-rule="evenodd" d="M77.3604 37.4415C75.4565 -9.74325 146.293 -10.8349 136.836 35.2971C134.3 47.6645 110.087 67.6816 112.217 74.6763C114.347 81.671 127.191 73.3039 130.515 68.8045C119.443 93.0402 77.8754 94.2879 108.151 51.9767C113.38 44.6702 122.291 32.1936 109.181 22.5944C96.0801 12.9953 81.0981 28.4584 77.3604 37.4415Z" fill="#E2007A"></path>
  <path d="M368.127 12.5274C367.55 12.5274 367.097 12.3714 366.785 12.0517C366.473 11.732 366.309 11.2875 366.309 10.7027C366.309 9.95411 366.543 9.31469 367.012 8.80003C367.48 8.27758 368.042 8.02805 368.689 8.02805C369.22 8.02805 369.657 8.1996 370.008 8.5583C370.359 8.9092 370.539 9.36148 370.539 9.90733C370.539 10.6481 370.304 11.272 369.844 11.7788C369.384 12.2779 368.814 12.5274 368.127 12.5274Z" fill="#707173"></path>
  <path d="M357.968 31.3982L358.537 29.363C359.723 29.324 360.738 28.669 361.573 27.4057C362.408 26.1347 363.204 24.0526 363.937 21.144C364.046 20.684 364.179 20.0991 364.327 19.3817C364.632 17.8689 365.615 17.1125 367.292 17.1125C367.683 17.1125 367.979 17.1671 368.182 17.2841C368.385 17.3933 368.486 17.5648 368.486 17.7832C368.486 18.0795 368.315 18.6721 367.971 19.5377C367.628 20.411 367.378 21.0895 367.23 21.5729L365.786 25.9319L365.732 26.1113C365.365 27.164 365.186 27.8502 365.186 28.1621C365.186 28.5832 365.326 28.8717 365.607 29.0355C365.888 29.1992 366.465 29.3084 367.339 29.3552L366.77 31.3904H366.239C364.944 31.3904 363.976 31.2189 363.328 30.8836C362.681 30.5482 362.298 30.0024 362.181 29.2616C361.588 29.94 360.948 30.4625 360.262 30.8056C359.575 31.1565 358.81 31.3436 357.968 31.3826V31.3982Z" fill="#707173"></path>
  <path d="M345.147 29.9244C344.702 30.3767 344.195 30.7198 343.61 30.9693C343.025 31.2189 342.354 31.3592 341.612 31.3982L342.19 29.363C343.243 29.324 344.133 28.8327 344.866 27.8892C345.6 26.9378 346.271 25.4173 346.872 23.3118C347.16 22.2981 347.465 21.0973 347.777 19.7014C348.175 17.8378 348.815 16.902 349.689 16.902C350.477 16.902 351.046 16.9488 351.374 17.0346C351.702 17.1281 351.874 17.2841 351.874 17.518C351.874 17.6896 351.561 18.5474 350.937 20.0913C350.313 21.6353 349.767 23.1247 349.283 24.5751C350.851 22.0408 352.279 20.1849 353.575 19.0152C354.878 17.8533 356.15 17.2685 357.39 17.2685C358.022 17.2685 358.514 17.4401 358.865 17.7676C359.216 18.1029 359.396 18.5707 359.396 19.1712C359.396 19.8574 358.818 21.6275 357.648 24.5127L357.265 25.4563C357.016 26.0723 356.821 26.6337 356.672 27.164C356.524 27.6864 356.454 28.0607 356.454 28.2869C356.454 28.6534 356.594 28.9185 356.875 29.0667C357.156 29.2226 357.71 29.3162 358.553 29.3708L357.976 31.406H357.632C355.986 31.406 354.784 31.1877 354.012 30.7432C353.247 30.2987 352.864 29.6047 352.864 28.669C352.864 28.2401 353.005 27.5773 353.301 26.6805C353.598 25.7916 354.035 24.6453 354.628 23.2651L354.745 22.9765C355.26 21.8302 355.518 21.144 355.518 20.9335C355.518 20.7619 355.479 20.6372 355.385 20.5514C355.299 20.4734 355.166 20.4344 354.987 20.4344C354.394 20.4344 353.481 21.183 352.248 22.688C351.007 24.193 349.923 26.0177 348.986 28.1621C348.799 28.591 348.588 29.1134 348.37 29.7451C347.949 30.8914 347.129 31.4606 345.904 31.4606C345.506 31.4606 345.225 31.4216 345.061 31.3436C344.905 31.2656 344.819 31.1331 344.819 30.9459C344.819 30.8446 344.843 30.712 344.905 30.5482C344.96 30.3845 345.046 30.174 345.163 29.9244H345.147Z" fill="#707173"></path>
  <path d="M340.169 22.0486C339.669 21.9628 339.287 21.7835 339.022 21.4871C338.764 21.1986 338.632 20.8087 338.632 20.3175C338.632 19.6079 338.835 19.0152 339.232 18.5474C339.63 18.0795 340.145 17.8456 340.754 17.8456C341.425 17.8456 341.948 18.1185 342.323 18.6565C342.689 19.2024 342.877 19.9588 342.877 20.9335C342.877 22.1422 342.681 23.382 342.299 24.6375C341.917 25.8929 341.371 27.047 340.668 28.1075C339.927 29.2304 339.131 30.0648 338.273 30.6184C337.422 31.1799 336.509 31.4528 335.518 31.4528C334.808 31.4528 334.192 31.3592 333.661 31.1721C333.138 30.9849 332.686 30.6964 332.319 30.3221C331.656 30.6496 330.977 30.907 330.267 31.0785C329.557 31.2501 328.784 31.3592 327.949 31.3826L328.55 29.3474C329.096 29.3162 329.596 29.2538 330.025 29.1368C330.462 29.0277 330.86 28.8717 331.203 28.6768C331.086 28.3415 330.992 27.9906 330.938 27.6319C330.875 27.2654 330.844 26.8755 330.844 26.47C330.844 25.3549 331.07 24.2008 331.531 23.0077C331.983 21.8147 332.615 20.7541 333.404 19.834C334.098 19.0152 334.925 18.3446 335.893 17.83C336.853 17.3231 337.75 17.0658 338.585 17.0658C338.803 17.0658 338.983 17.1126 339.108 17.2061C339.232 17.2997 339.295 17.4245 339.295 17.5882C339.295 17.8066 339.053 18.1575 338.569 18.6331C338.078 19.1088 337.703 19.5065 337.446 19.8262C336.416 21.1206 335.62 22.4307 335.066 23.7563C334.519 25.0898 334.239 26.3296 334.239 27.4915C334.239 28.0451 334.363 28.474 334.605 28.7859C334.855 29.0978 335.19 29.2538 335.62 29.2538C336.65 29.2538 337.656 28.513 338.647 27.0392C339.63 25.5576 340.145 23.8889 340.184 22.0252L340.169 22.0486Z" fill="#707173"></path>
  <path d="M304.267 31.3982L304.844 29.363C305.898 29.324 306.787 28.8327 307.521 27.8892C308.254 26.9456 308.925 25.4172 309.526 23.304C309.799 22.3371 310.088 21.1752 310.384 19.795C310.806 17.8611 311.446 16.8942 312.312 16.8942C313.131 16.8942 313.701 16.941 314.044 17.0346C314.38 17.1281 314.551 17.2841 314.551 17.5102C314.551 17.6818 314.239 18.5395 313.607 20.0835C312.967 21.6353 312.413 23.1403 311.929 24.5907C313.599 21.9082 315.004 19.9977 316.151 18.8671C317.298 17.7364 318.39 17.1671 319.428 17.1671C320.029 17.1671 320.505 17.3387 320.864 17.6662C321.223 18.0015 321.395 18.4616 321.395 19.0386C321.395 19.4363 321.239 20.0601 320.934 20.9023C320.622 21.7445 320.107 22.9375 319.397 24.4659C321.348 21.4715 322.838 19.5065 323.868 18.5707C324.89 17.6272 325.928 17.1671 326.982 17.1671C327.707 17.1671 328.269 17.3465 328.683 17.7052C329.096 18.0717 329.307 18.5551 329.307 19.1634C329.307 19.873 328.667 21.7912 327.395 24.9104L327.153 25.5108C326.919 26.0723 326.74 26.6181 326.599 27.1406C326.459 27.6708 326.389 28.0451 326.389 28.2713C326.389 28.63 326.537 28.8951 326.833 29.0432C327.13 29.1992 327.684 29.3006 328.495 29.3474L327.926 31.3826H327.746C326.014 31.3826 324.75 31.1643 323.962 30.7354C323.174 30.3065 322.784 29.6125 322.784 28.6767C322.784 28.0373 323.189 26.7195 324.001 24.731C324.235 24.1618 324.414 23.7173 324.539 23.4132C324.914 22.4619 325.156 21.799 325.281 21.4403C325.398 21.0816 325.46 20.8243 325.46 20.6762C325.46 20.4968 325.429 20.3642 325.366 20.2941C325.312 20.2161 325.202 20.1849 325.07 20.1849C324.625 20.1849 323.798 20.9569 322.573 22.5086C321.348 24.0604 320.216 25.8695 319.171 27.9438C318.89 28.513 318.601 29.1758 318.312 29.9322C317.946 30.8601 317.353 31.328 316.518 31.328C315.769 31.328 315.246 31.2812 314.949 31.1955C314.66 31.1019 314.512 30.9459 314.512 30.712C314.512 30.5326 314.746 29.9088 315.215 28.8327C315.675 27.7566 316.065 26.8365 316.362 26.0645C317.142 24.0994 317.633 22.7972 317.844 22.1655C318.047 21.5261 318.148 21.066 318.148 20.7775C318.148 20.5904 318.094 20.4422 317.992 20.3408C317.883 20.2395 317.743 20.1927 317.563 20.1927C317.064 20.1927 316.206 20.9413 314.988 22.4385C313.763 23.9357 312.764 25.5654 311.984 27.3277C311.649 28.0919 311.305 28.8873 310.977 29.7139C310.642 30.5404 310.462 30.9771 310.416 31.0239C310.291 31.1721 310.088 31.2812 309.823 31.3514C309.557 31.4216 309.12 31.4528 308.535 31.4528C308.145 31.4528 307.864 31.4138 307.7 31.3358C307.536 31.2578 307.45 31.1331 307.45 30.9693C307.45 30.829 307.544 30.5404 307.724 30.096C307.755 30.0258 307.778 29.9712 307.778 29.9244C307.349 30.3689 306.842 30.712 306.257 30.9537C305.679 31.2033 305.008 31.3436 304.251 31.3826L304.267 31.3982Z" fill="#707173"></path>
  <path d="M291.961 30.1739C291.197 30.5248 290.44 30.8134 289.683 31.0239C288.934 31.2345 288.2 31.3592 287.498 31.3982L288.091 29.363C288.692 29.3318 289.269 29.2382 289.815 29.0822C290.362 28.9185 290.9 28.6924 291.431 28.3882C291.454 27.4291 291.587 26.3842 291.836 25.2691C292.086 24.154 292.484 22.8284 293.038 21.3078C293.709 19.4909 294.216 18.3212 294.552 17.791C294.887 17.2607 295.231 16.9956 295.598 16.9956C296.386 16.9956 296.971 17.0891 297.377 17.2763C297.775 17.4634 297.977 17.7442 297.977 18.1107C297.977 18.3212 297.759 18.8827 297.33 19.7872C296.901 20.6918 296.573 21.4326 296.339 21.9862C295.8 23.2884 295.418 24.3489 295.192 25.1677C294.973 25.9865 294.864 26.7039 294.864 27.3355C294.864 27.7176 294.942 28.0061 295.098 28.1933C295.254 28.3804 295.496 28.4818 295.816 28.4818C296.557 28.4818 297.408 27.9282 298.36 26.8131C299.312 25.698 300.201 24.2242 301.013 22.3761C301.411 21.4793 301.801 20.411 302.183 19.1556C302.589 17.8143 303.089 17.1359 303.689 17.1359C304.29 17.1359 304.805 17.2451 305.242 17.4556C305.671 17.674 305.89 17.9469 305.89 18.2744C305.89 18.4616 305.773 18.8359 305.531 19.3973C305.351 19.8106 305.211 20.1381 305.125 20.3954L301.723 29.7607C302.261 29.6437 303.206 29.5111 304.548 29.3864C304.673 29.3786 304.766 29.363 304.836 29.3552L304.251 31.3904C303.315 31.484 302.605 31.5698 302.121 31.6555C301.637 31.7413 301.208 31.8427 300.833 31.9519C300.155 34.3614 299.382 36.1627 298.524 37.3324C297.665 38.5098 296.698 39.0947 295.629 39.0947C295.114 39.0947 294.708 38.9699 294.435 38.7048C294.154 38.4397 294.021 38.0654 294.021 37.5585C294.021 36.6306 294.38 35.7026 295.098 34.7903C295.816 33.8857 296.776 33.1449 297.977 32.5991C298.469 31.3826 298.929 30.2207 299.351 29.1056C299.772 27.9905 300.17 26.891 300.537 25.8305C299.476 27.7722 298.43 29.1992 297.408 30.1038C296.386 31.0083 295.317 31.4606 294.185 31.4606C293.686 31.4606 293.225 31.3436 292.804 31.1019C292.383 30.8602 292.102 30.556 291.961 30.1817V30.1739Z" fill="#707173"></path>
  <path d="M273.242 31.3982L273.827 29.363C275.068 29.1524 276.207 28.3103 277.245 26.8287C278.275 25.3471 279.469 22.7816 280.826 19.1088C280.592 18.8749 280.428 18.6253 280.311 18.3446C280.202 18.0639 280.147 17.7442 280.147 17.3777C280.147 16.6603 280.35 16.0598 280.74 15.5842C281.138 15.1085 281.638 14.8746 282.239 14.8746C282.793 14.8746 283.23 15.0227 283.55 15.3268C283.869 15.6232 284.033 16.0287 284.033 16.5277C284.033 16.7695 284.01 16.9956 283.955 17.1983C283.908 17.4011 283.823 17.6116 283.721 17.8222C284.228 18.1419 284.892 18.5318 285.703 18.984C287.178 19.7716 287.919 20.5592 287.919 21.3468C287.919 22.0096 287.521 23.1715 286.718 24.848C285.914 26.5246 285.508 27.663 285.508 28.2635C285.508 28.63 285.649 28.8795 285.922 29.0199C286.195 29.1602 286.913 29.285 288.06 29.3864L287.474 31.406H287.022C285.219 31.406 283.916 31.1955 283.12 30.7822C282.332 30.3689 281.934 29.6905 281.934 28.7625C281.934 27.9282 282.317 26.6961 283.074 25.0586C283.83 23.421 284.205 22.3683 284.205 21.9082C284.205 21.6899 284.08 21.4638 283.815 21.222C283.55 20.9881 283.113 20.6918 282.488 20.3253C281.146 24.2086 279.757 27.0002 278.329 28.6924C276.901 30.3923 275.208 31.2968 273.242 31.406V31.3982Z" fill="#707173"></path>
  <path d="M263.066 31.3982L263.636 29.363C264.76 29.2538 265.634 28.8795 266.258 28.2323C266.882 27.585 267.436 26.4076 267.92 24.692L269.184 20.2239H267.717C267.499 20.2239 267.35 20.2005 267.264 20.1459C267.186 20.0913 267.147 19.9899 267.147 19.8496C267.147 19.8262 267.147 19.8028 267.147 19.7716C267.147 19.7404 267.171 19.6858 267.202 19.5922L267.444 18.8748C267.499 18.6877 267.608 18.5473 267.756 18.4772C267.897 18.407 268.185 18.3758 268.622 18.3758H269.738L271.213 13.5021C271.291 13.237 271.392 12.8783 271.502 12.4182C271.814 11.116 272.438 10.461 273.374 10.461C274.038 10.461 274.553 10.5467 274.927 10.7105C275.294 10.8821 275.481 11.1082 275.481 11.4123C275.481 11.6151 275.364 11.9971 275.138 12.5664C275.013 12.8705 274.927 13.1122 274.865 13.2916L273.132 18.3758H275.661C275.848 18.3758 275.996 18.3992 276.098 18.4616C276.199 18.5161 276.246 18.6019 276.246 18.7189C276.246 18.7735 276.246 18.8203 276.246 18.8593C276.246 18.8982 276.23 18.9372 276.222 18.9762L275.965 19.7014C275.91 19.8886 275.793 20.0211 275.637 20.1069C275.481 20.1849 275.192 20.2239 274.794 20.2239H272.578L271.104 25.0819C270.932 25.6278 270.807 26.0957 270.729 26.4856C270.643 26.8832 270.604 27.203 270.604 27.4525C270.604 28.0217 270.877 28.4662 271.424 28.7937C271.962 29.1134 272.766 29.3006 273.842 29.363L273.257 31.3982H272.898C271.564 31.3982 270.44 31.2422 269.543 30.9225C268.638 30.6028 267.99 30.1505 267.584 29.5423C266.945 30.096 266.234 30.5326 265.462 30.8523C264.682 31.1721 263.894 31.3592 263.082 31.3982H263.066Z" fill="#707173"></path>
  <path d="M259.298 25.9631C258.221 27.8658 257.159 29.2616 256.106 30.1428C255.053 31.0239 253.929 31.4684 252.72 31.4684C252.15 31.4684 251.65 31.3826 251.229 31.2267C250.8 31.0707 250.472 30.829 250.23 30.5171C249.731 30.79 249.161 30.9927 248.514 31.1409C247.874 31.2812 247.117 31.3748 246.251 31.406L246.859 29.3708C247.406 29.3396 247.905 29.2772 248.342 29.1602C248.779 29.0511 249.177 28.8951 249.52 28.7002C249.481 28.4896 249.45 28.2713 249.434 28.0451C249.411 27.819 249.403 27.5695 249.403 27.3121C249.403 26.4778 249.583 25.5732 249.942 24.5907C250.308 23.6004 250.808 22.6334 251.463 21.6743C252.47 20.2317 253.578 19.1322 254.795 18.3758C256.02 17.6194 257.277 17.2451 258.58 17.2451C259.227 17.2451 259.789 17.3387 260.265 17.5336C260.741 17.7208 261.186 18.0249 261.607 18.446L261.818 17.7754C261.943 17.3621 262.075 17.1048 262.208 16.9878C262.333 16.8786 262.528 16.824 262.778 16.824C263.472 16.824 264.073 16.941 264.588 17.1749C265.103 17.4089 265.361 17.6896 265.361 18.0093C265.361 18.1107 265.142 18.5863 264.713 19.4285C264.284 20.2707 263.901 21.0739 263.574 21.8381C262.91 23.3508 262.411 24.6453 262.075 25.7214C261.74 26.7975 261.568 27.6241 261.568 28.2089C261.568 28.6066 261.693 28.8873 261.943 29.0433C262.192 29.1992 262.762 29.3162 263.659 29.3942L263.074 31.4138H262.801C261.225 31.4138 260.117 31.2501 259.477 30.9148C258.837 30.5872 258.509 30.0258 258.509 29.2304C258.509 28.8795 258.572 28.4506 258.689 27.936C258.814 27.4291 259.017 26.7741 259.29 25.9709L259.298 25.9631ZM260.835 20.2629C260.569 20.0523 260.296 19.8964 260.031 19.795C259.766 19.7014 259.5 19.6469 259.227 19.6469C258.634 19.6469 257.955 19.9042 257.191 20.411C256.426 20.9257 255.692 21.6197 254.99 22.5087C254.35 23.3196 253.843 24.1774 253.461 25.082C253.086 25.9943 252.899 26.7897 252.899 27.4681C252.899 27.9594 252.985 28.3181 253.156 28.5598C253.328 28.7937 253.586 28.9107 253.937 28.9107C254.92 28.9107 255.997 28.1777 257.175 26.7117C258.346 25.2457 259.571 23.1013 260.843 20.2629H260.835Z" fill="#707173"></path>
  <path d="M222.584 31.3982L223.161 29.363C224.215 29.324 225.112 28.8327 225.838 27.8892C226.571 26.9456 227.242 25.4172 227.843 23.304C228.116 22.3371 228.405 21.1752 228.702 19.795C229.123 17.8611 229.763 16.8942 230.629 16.8942C231.448 16.8942 232.018 16.941 232.369 17.0346C232.705 17.1281 232.876 17.2841 232.876 17.5102C232.876 17.6818 232.564 18.5395 231.932 20.0835C231.292 21.6353 230.738 23.1403 230.254 24.5907C231.924 21.9082 233.329 19.9977 234.476 18.8671C235.631 17.7364 236.715 17.1671 237.753 17.1671C238.354 17.1671 238.83 17.3387 239.189 17.6662C239.548 18.0015 239.72 18.4616 239.72 19.0386C239.72 19.4363 239.563 20.0601 239.259 20.9023C238.947 21.7445 238.432 22.9375 237.722 24.4659C239.673 21.4715 241.163 19.5065 242.193 18.5707C243.215 17.6272 244.253 17.1671 245.307 17.1671C246.032 17.1671 246.594 17.3465 247.008 17.7052C247.421 18.0717 247.632 18.5551 247.632 19.1634C247.632 19.873 246.992 21.7912 245.72 24.9104L245.478 25.5108C245.244 26.0723 245.065 26.6181 244.924 27.1406C244.784 27.6708 244.714 28.0451 244.714 28.2713C244.714 28.63 244.862 28.8951 245.158 29.0432C245.455 29.1992 246.009 29.3006 246.82 29.3474L246.251 31.3826H246.071C244.339 31.3826 243.075 31.1643 242.287 30.7354C241.499 30.3065 241.108 29.6125 241.108 28.6767C241.108 28.0373 241.514 26.7195 242.326 24.731C242.56 24.1618 242.739 23.7173 242.864 23.4132C243.239 22.4619 243.481 21.799 243.605 21.4403C243.723 21.0816 243.785 20.8243 243.785 20.6762C243.785 20.4968 243.754 20.3642 243.691 20.2941C243.637 20.2161 243.535 20.1849 243.395 20.1849C242.95 20.1849 242.123 20.9569 240.898 22.5086C239.673 24.0604 238.541 25.8695 237.496 27.9438C237.215 28.513 236.926 29.1758 236.637 29.9322C236.271 30.8601 235.678 31.328 234.843 31.328C234.093 31.328 233.571 31.2812 233.274 31.1955C232.985 31.1019 232.837 30.9459 232.837 30.712C232.837 30.5326 233.071 29.9088 233.539 28.8327C234 27.7566 234.39 26.8365 234.687 26.0645C235.467 24.0994 235.958 22.7972 236.169 22.1655C236.372 21.5261 236.473 21.066 236.473 20.7775C236.473 20.5904 236.419 20.4422 236.317 20.3408C236.208 20.2395 236.068 20.1927 235.888 20.1927C235.389 20.1927 234.53 20.9413 233.313 22.4385C232.088 23.9357 231.089 25.5654 230.309 27.3277C229.973 28.0919 229.63 28.8873 229.302 29.7139C228.967 30.5404 228.787 30.9771 228.741 31.0239C228.616 31.1721 228.413 31.2812 228.148 31.3514C227.882 31.4216 227.453 31.4528 226.86 31.4528C226.47 31.4528 226.189 31.4138 226.025 31.3358C225.861 31.2578 225.775 31.1331 225.775 30.9693C225.775 30.829 225.869 30.5404 226.049 30.096C226.08 30.0258 226.103 29.9712 226.103 29.9244C225.674 30.3689 225.167 30.712 224.582 30.9537C224.004 31.2033 223.333 31.3436 222.576 31.3826L222.584 31.3982Z" fill="#707173"></path>
  <path d="M213.002 22.0486C212.502 21.9628 212.12 21.7835 211.855 21.4871C211.589 21.1986 211.464 20.8087 211.464 20.3175C211.464 19.6079 211.667 19.0152 212.065 18.5474C212.463 18.0795 212.97 17.8456 213.587 17.8456C214.258 17.8456 214.781 18.1185 215.155 18.6565C215.522 19.2024 215.709 19.9588 215.709 20.9335C215.709 22.1422 215.514 23.382 215.132 24.6375C214.75 25.8929 214.203 27.047 213.501 28.1075C212.76 29.2304 211.964 30.0648 211.106 30.6184C210.255 31.1799 209.342 31.4528 208.351 31.4528C207.633 31.4528 207.025 31.3592 206.494 31.1721C205.971 30.9849 205.519 30.6964 205.144 30.3221C204.481 30.6496 203.802 30.907 203.092 31.0785C202.382 31.2501 201.609 31.3592 200.774 31.3826L201.375 29.3474C201.921 29.3162 202.421 29.2538 202.85 29.1368C203.287 29.0277 203.685 28.8717 204.028 28.6768C203.911 28.3415 203.817 27.9906 203.763 27.6319C203.7 27.2654 203.669 26.8755 203.669 26.47C203.669 25.3549 203.895 24.2008 204.356 23.0077C204.808 21.8147 205.441 20.7541 206.229 19.834C206.923 19.0152 207.75 18.3446 208.71 17.83C209.67 17.3231 210.567 17.0658 211.402 17.0658C211.621 17.0658 211.8 17.1126 211.917 17.2061C212.042 17.2997 212.104 17.4245 212.104 17.5882C212.104 17.8066 211.862 18.1575 211.379 18.6331C210.887 19.1088 210.513 19.5065 210.255 19.8262C209.225 21.1206 208.429 22.4307 207.875 23.7563C207.329 25.0898 207.048 26.3296 207.048 27.4915C207.048 28.0451 207.173 28.474 207.415 28.7859C207.664 29.0978 208 29.2538 208.429 29.2538C209.459 29.2538 210.466 28.513 211.457 27.0392C212.44 25.5576 212.955 23.8889 212.994 22.0252L213.002 22.0486Z" fill="#707173"></path>
  <path d="M186.51 31.3982L187.095 29.363C188.336 29.1524 189.475 28.3103 190.513 26.8287C191.543 25.3471 192.737 22.7816 194.095 19.1088C193.861 18.8749 193.697 18.6253 193.58 18.3446C193.471 18.0639 193.416 17.7442 193.416 17.3777C193.416 16.6603 193.619 16.0598 194.009 15.5842C194.407 15.1085 194.906 14.8746 195.507 14.8746C196.061 14.8746 196.498 15.0227 196.818 15.3268C197.138 15.6232 197.302 16.0287 197.302 16.5277C197.302 16.7695 197.278 16.9956 197.224 17.1983C197.177 17.4011 197.099 17.6116 196.99 17.8222C197.497 18.1419 198.16 18.5318 198.972 18.984C200.447 19.7716 201.188 20.5592 201.188 21.3468C201.188 22.0096 200.79 23.1715 199.986 24.848C199.182 26.5246 198.777 27.663 198.777 28.2635C198.777 28.63 198.917 28.8795 199.19 29.0199C199.463 29.1602 200.181 29.285 201.328 29.3864L200.743 31.406H200.29C198.488 31.406 197.185 31.1955 196.389 30.7822C195.601 30.3689 195.203 29.6905 195.203 28.7625C195.203 27.9282 195.585 26.6961 196.334 25.0586C197.091 23.421 197.466 22.3683 197.466 21.9082C197.466 21.6899 197.341 21.4638 197.076 21.222C196.81 20.9881 196.373 20.6918 195.749 20.3253C194.407 24.2086 193.018 27.0002 191.59 28.6924C190.162 30.3923 188.469 31.2968 186.502 31.406L186.51 31.3982Z" fill="#707173"></path>
  <path d="M170.178 31.3982L170.771 29.363C171.372 29.3318 171.95 29.2382 172.496 29.0745C173.042 28.9185 173.58 28.6846 174.111 28.3882C174.103 28.3181 174.095 28.2479 174.088 28.1699C174.088 28.0997 174.08 27.9828 174.08 27.8346C174.08 26.8365 174.61 24.8168 175.664 21.7601C175.867 21.1908 176.015 20.7463 176.116 20.4344C176.21 20.1615 176.351 19.7716 176.507 19.2959C177.022 17.6974 177.544 16.902 178.059 16.902C178.746 16.902 179.409 17.0268 180.065 17.2841C180.72 17.5336 181.048 17.8066 181.048 18.1029C181.048 18.212 180.806 18.7735 180.33 19.7716C179.854 20.7697 179.425 21.7367 179.043 22.6646C178.418 24.1774 177.981 25.3315 177.724 26.1269C177.466 26.9144 177.342 27.4993 177.342 27.8658C177.342 28.1777 177.42 28.4116 177.576 28.5754C177.732 28.7313 177.958 28.8171 178.247 28.8171C178.933 28.8171 179.714 28.2635 180.595 27.1562C181.477 26.0489 182.312 24.5673 183.108 22.6958C183.553 21.6821 183.966 20.4968 184.357 19.1166C184.754 17.7052 185.309 16.9956 186.019 16.9956C186.682 16.9956 187.259 17.1048 187.766 17.3231C188.266 17.5414 188.516 17.8066 188.516 18.1107C188.516 18.2198 188.281 18.7891 187.821 19.8106C187.361 20.8321 186.955 21.7991 186.604 22.6958C186.112 23.9669 185.745 25.0274 185.511 25.8929C185.277 26.7585 185.16 27.4603 185.16 27.9906C185.16 28.4896 185.293 28.8405 185.558 29.0355C185.824 29.2304 186.346 29.3396 187.119 29.3708L186.541 31.406H186.26C184.825 31.406 183.826 31.2345 183.272 30.8992C182.718 30.5638 182.437 29.9712 182.437 29.1368C182.437 28.7937 182.492 28.3726 182.609 27.8658C182.718 27.3667 182.897 26.7117 183.147 25.9007C181.664 28.0997 180.478 29.5735 179.604 30.3065C178.723 31.0395 177.81 31.406 176.842 31.406C176.202 31.406 175.672 31.2968 175.25 31.0707C174.829 30.8524 174.525 30.5249 174.345 30.0804C173.768 30.4781 173.151 30.7822 172.496 30.9927C171.84 31.1955 171.076 31.3358 170.186 31.406L170.178 31.3982Z" fill="#707173"></path>
  <path d="M171.513 12.5274C170.935 12.5274 170.483 12.3714 170.171 12.0517C169.858 11.732 169.695 11.2875 169.695 10.7027C169.695 9.95411 169.929 9.31469 170.397 8.80003C170.865 8.27758 171.427 8.02805 172.074 8.02805C172.605 8.02805 173.042 8.1996 173.393 8.5583C173.744 8.9092 173.924 9.36148 173.924 9.90733C173.924 10.6481 173.69 11.272 173.229 11.7788C172.769 12.2779 172.199 12.5274 171.513 12.5274Z" fill="#707173"></path>
  <path d="M161.353 31.3982L161.923 29.363C163.109 29.324 164.123 28.669 164.958 27.4057C165.793 26.1347 166.589 24.0526 167.322 21.144C167.432 20.684 167.564 20.0991 167.713 19.3817C168.017 17.8689 169 17.1125 170.678 17.1125C171.068 17.1125 171.364 17.1671 171.575 17.2841C171.778 17.3933 171.879 17.5648 171.879 17.7832C171.879 18.0795 171.708 18.6721 171.364 19.5377C171.021 20.411 170.771 21.0895 170.623 21.5729L169.18 25.9319L169.125 26.1113C168.758 27.164 168.579 27.8502 168.579 28.1621C168.579 28.5832 168.719 28.8717 169 29.0355C169.281 29.1992 169.858 29.3084 170.732 29.3552L170.163 31.3904H169.632C168.337 31.3904 167.369 31.2189 166.722 30.8836C166.074 30.5482 165.692 30.0024 165.574 29.2616C164.981 29.94 164.342 30.4625 163.655 30.8056C162.968 31.1565 162.204 31.3436 161.361 31.3826L161.353 31.3982Z" fill="#707173"></path>
  <path d="M148.174 29.363C148.798 29.324 149.352 29.2304 149.859 29.0822C150.358 28.9341 150.795 28.7313 151.17 28.4662C151.139 28.1387 151.115 27.8736 151.115 27.6786C151.115 27.4837 151.115 27.3043 151.115 27.1328C151.115 26.236 151.412 24.6141 152.005 22.2747C152.598 19.9354 153.378 17.4322 154.354 14.742C155.368 11.927 156.164 10.1491 156.734 9.40826C157.303 8.67526 157.982 8.30096 158.77 8.30096C159.309 8.30096 159.753 8.48811 160.089 8.87021C160.432 9.2523 160.604 9.75137 160.604 10.3752C160.604 11.4123 160.339 12.4416 159.824 13.4787C159.301 14.5237 158.528 15.5452 157.506 16.5589C156.585 19.1634 155.86 21.4637 155.329 23.4678C154.798 25.4718 154.541 26.8832 154.541 27.7176C154.541 28.1075 154.635 28.4038 154.814 28.6144C154.993 28.8249 155.259 28.9341 155.594 28.9341C156.538 28.9341 157.444 28.2635 158.31 26.9144C159.176 25.5732 159.636 23.9902 159.722 22.1655C159.012 22.111 158.481 21.9004 158.146 21.5573C157.803 21.2064 157.631 20.7151 157.631 20.0757C157.631 19.3817 157.826 18.8281 158.216 18.3992C158.606 17.9703 159.129 17.7598 159.785 17.7598C160.596 17.7598 161.252 18.1185 161.759 18.8281C162.266 19.5455 162.516 20.4812 162.516 21.6353C162.516 24.271 161.759 26.5713 160.237 28.5208C158.716 30.4781 156.975 31.4528 155.009 31.4528C154.408 31.4528 153.846 31.3514 153.316 31.1565C152.793 30.9615 152.348 30.6808 151.981 30.3221C151.318 30.6496 150.639 30.9069 149.929 31.0785C149.219 31.25 148.447 31.3592 147.604 31.3826L148.197 29.3474L148.174 29.363Z" fill="#707173"></path>
  <path d="M414.47 29.8932C413.502 30.3533 412.519 30.712 411.544 30.9615C410.568 31.2111 409.585 31.3592 408.586 31.3982L409.195 29.363C409.882 29.3084 410.529 29.2226 411.115 29.0745C411.7 28.9341 412.269 28.7469 412.823 28.5052C412.441 27.9984 412.16 27.4291 411.981 26.7897C411.801 26.1503 411.708 25.4017 411.708 24.5361C411.708 22.5321 412.387 20.7853 413.76 19.3037C415.133 17.8222 416.741 17.0814 418.613 17.0814C419.659 17.0814 420.486 17.3933 421.087 18.0171C421.696 18.6409 422 19.4987 422 20.5748C422 21.7601 421.571 23.0623 420.697 24.4893C419.831 25.9241 418.676 27.1796 417.224 28.2713C417.646 28.6612 418.106 28.9419 418.598 29.1056C419.097 29.2694 419.706 29.3552 420.424 29.3552H420.634L420.049 31.3904H419.643C418.52 31.3904 417.529 31.2657 416.678 31.0239C415.828 30.7744 415.086 30.4001 414.462 29.8854L414.47 29.8932ZM416.023 26.7195C417.068 26.0411 417.942 25.1209 418.66 23.9669C419.37 22.805 419.729 21.7991 419.729 20.9413C419.729 20.5124 419.62 20.1849 419.409 19.9588C419.199 19.7326 418.894 19.6235 418.496 19.6235C417.661 19.6235 416.928 20.1147 416.28 21.0895C415.64 22.0642 415.313 23.2027 415.313 24.4893C415.313 24.9806 415.367 25.4017 415.477 25.7604C415.586 26.1113 415.765 26.4388 416.023 26.7273V26.7195Z" fill="#707173"></path>
  <path d="M395.766 29.9244C395.321 30.3767 394.814 30.7198 394.229 30.9693C393.643 31.2189 392.972 31.3592 392.231 31.3982L392.809 29.363C393.862 29.324 394.752 28.8327 395.485 27.8892C396.219 26.9378 396.89 25.4173 397.49 23.3118C397.779 22.2981 398.083 21.0973 398.396 19.7014C398.794 17.8378 399.433 16.902 400.307 16.902C401.095 16.902 401.665 16.9488 401.993 17.0346C402.321 17.1281 402.492 17.2841 402.492 17.518C402.492 17.6896 402.18 18.5474 401.556 20.0913C400.932 21.6353 400.385 23.1247 399.902 24.5751C401.47 22.0408 402.898 20.1849 404.193 19.0152C405.489 17.8533 406.768 17.2685 408.009 17.2685C408.641 17.2685 409.133 17.4401 409.484 17.7676C409.835 18.1029 410.014 18.5707 410.014 19.1712C410.014 19.8574 409.437 21.6275 408.267 24.5127L407.884 25.4563C407.634 26.0723 407.439 26.6337 407.291 27.164C407.143 27.6864 407.073 28.0607 407.073 28.2791C407.073 28.6456 407.213 28.9107 407.494 29.0589C407.775 29.2148 408.329 29.3084 409.172 29.363L408.594 31.3982H408.251C406.604 31.3982 405.403 31.1799 404.63 30.7354C403.866 30.2909 403.483 29.5969 403.483 28.6612C403.483 28.2323 403.624 27.5695 403.92 26.6727C404.209 25.7838 404.654 24.6375 405.247 23.2573L405.364 22.9687C405.879 21.8225 406.136 21.1362 406.136 20.9257C406.136 20.7541 406.097 20.6294 406.011 20.5436C405.926 20.4656 405.793 20.4266 405.613 20.4266C405.02 20.4266 404.107 21.1752 402.875 22.6802C401.634 24.1852 400.549 26.0099 399.613 28.1543C399.426 28.5832 399.215 29.1056 398.996 29.7373C398.575 30.8836 397.756 31.4528 396.531 31.4528C396.133 31.4528 395.844 31.4138 395.688 31.3436C395.524 31.2656 395.446 31.1331 395.446 30.9459C395.446 30.8524 395.469 30.712 395.524 30.5482C395.579 30.3845 395.665 30.174 395.789 29.9244H395.766Z" fill="#707173"></path>
  <path d="M383.601 31.3982L384.171 29.363C384.693 29.363 385.247 29.207 385.848 28.9029C386.441 28.5988 387.105 28.1153 387.846 27.4525C388.181 25.1755 388.634 22.8284 389.219 20.411C389.804 17.9859 390.499 15.5998 391.287 13.2292C391.95 11.2719 392.574 9.92292 393.144 9.17433C393.722 8.43353 394.385 8.05923 395.134 8.05923C395.633 8.05923 396.047 8.26198 396.375 8.65967C396.695 9.05736 396.858 9.57982 396.858 10.2114C396.858 10.9912 396.57 11.9894 395.977 13.1902C395.384 14.3989 394.595 15.6231 393.589 16.8708C392.816 19.3427 392.2 21.6197 391.732 23.6939C391.264 25.7682 391.029 27.1406 391.029 27.8268C391.029 28.3726 391.17 28.7625 391.443 29.0043C391.708 29.246 392.161 29.363 392.793 29.363L392.208 31.3982H391.864C390.741 31.3982 389.867 31.2422 389.243 30.9147C388.618 30.595 388.213 30.096 388.033 29.4253C387.37 30.0336 386.668 30.5092 385.911 30.8368C385.162 31.1721 384.381 31.3514 383.578 31.3982H383.601Z" fill="#707173"></path>
  <path d="M379.832 25.9553C378.763 27.858 377.694 29.2538 376.641 30.1349C375.587 31.0161 374.463 31.4606 373.254 31.4606C372.684 31.4606 372.185 31.3748 371.756 31.2188C371.327 31.0629 370.999 30.8211 370.757 30.5092C370.258 30.7822 369.688 30.9849 369.04 31.1331C368.4 31.2734 367.644 31.367 366.777 31.3982L367.386 29.3629C367.932 29.3318 368.432 29.2694 368.869 29.1524C369.306 29.0432 369.704 28.8873 370.047 28.6923C370.008 28.4818 369.977 28.2635 369.961 28.0373C369.938 27.8112 369.93 27.5616 369.93 27.3043C369.93 26.4699 370.109 25.5654 370.468 24.5751C370.835 23.5847 371.334 22.6178 371.99 21.6587C372.996 20.2161 374.105 19.1166 375.322 18.3602C376.547 17.6038 377.803 17.2295 379.106 17.2295C379.762 17.2295 380.316 17.3231 380.792 17.518C381.268 17.7052 381.713 18.0093 382.134 18.4304L382.345 17.7597C382.469 17.3465 382.61 17.0891 382.735 16.9722C382.86 16.863 383.055 16.8084 383.304 16.8084C383.999 16.8084 384.608 16.9254 385.115 17.1593C385.63 17.3932 385.887 17.674 385.887 17.9937C385.887 18.0951 385.669 18.5707 385.24 19.4129C384.81 20.2551 384.428 21.0582 384.1 21.8224C383.437 23.3352 382.938 24.6297 382.602 25.7058C382.267 26.7819 382.103 27.6084 382.103 28.1933C382.103 28.591 382.228 28.8717 382.477 29.0276C382.727 29.1836 383.297 29.3006 384.194 29.3785L383.609 31.3982H383.336C381.759 31.3982 380.651 31.2344 380.011 30.8991C379.372 30.5716 379.044 30.0102 379.044 29.2148C379.044 28.8639 379.106 28.435 379.223 27.9203C379.348 27.4135 379.543 26.7585 379.824 25.9553H379.832ZM381.369 20.2551C381.104 20.0445 380.831 19.8886 380.565 19.7872C380.3 19.6936 380.035 19.639 379.762 19.639C379.169 19.639 378.49 19.8964 377.725 20.4032C376.96 20.9179 376.227 21.6119 375.525 22.5008C374.885 23.3118 374.37 24.1696 373.995 25.0741C373.621 25.9787 373.433 26.7741 373.433 27.4603C373.433 27.9515 373.519 28.3102 373.691 28.552C373.863 28.7859 374.12 28.9029 374.471 28.9029C375.454 28.9029 376.531 28.1699 377.71 26.7039C378.88 25.2379 380.105 23.0935 381.377 20.2551H381.369Z" fill="#707173"></path>
</svg>
