<?xml version="1.0" encoding="UTF-8" standalone="no"?>
<svg xmlns="http://www.w3.org/2000/svg" xmlns:xlink="http://www.w3.org/1999/xlink" xmlns:serif="http://www.serif.com/" width="100%" height="100%" viewBox="0 0 828 568" version="1.1" xml:space="preserve" style="fill-rule:evenodd;clip-rule:evenodd;stroke-linejoin:round;stroke-miterlimit:2;">
  <g>
    <g>
      <path d="M426.795,345.123c-33.077,-87.292 -132.285,-278.677 -241.593,-177.853c-109.313,100.83 -15.949,371.705 642.029,391.717c-1098.41,91.273 -884.199,-617.659 -587.647,-554.242c168.102,35.944 188.201,255.625 187.211,340.378" style="fill:#e2007a;"></path>
    </g>
    <g>
      <path d="M413.588,200.805c-10.17,-252.129 368.072,-257.958 317.576,-11.454c-13.53,66.071 -142.825,173.025 -131.463,210.413c11.367,37.391 79.963,-7.334 97.692,-31.371c-59.117,129.508 -281.084,136.171 -119.404,-89.917c27.92,-39.042 75.491,-105.692 5.516,-156.996c-69.975,-51.308 -149.962,31.346 -169.917,79.325" style="fill:#e2007a;"></path>
    </g>
  </g>
</svg>
